Coordinates
version=1
nRows=32
nColumns=22
inDegrees=yes

Units are S.I. units (second, meters, Newtons, ...)
If the header above contains a line with 'inDegrees', this indicates whether rotational values are in degrees (yes) or radians (no).

endheader
time	pelvis_tilt	pelvis_list	pelvis_rotation	pelvis_tx	pelvis_ty	pelvis_tz	hip_flexion_r	hip_adduction_r	hip_rotation_r	knee_angle_r	ankle_angle_r	subtalar_angle_r	hip_flexion_l	hip_adduction_l	hip_rotation_l	knee_angle_l	ankle_angle_l	subtalar_angle_l	lumbar_extension	lumbar_bending	lumbar_rotation
      4.41000000	     -3.55745179	     -0.50260319	     -1.26908348	     -0.92789134	      1.01370418	      0.39292237	      4.55659581	      1.93878575	     -5.09340080	    -16.99418656	     13.46561547	      1.09907144	     19.86426801	     -7.16934223	     -5.34078811	    -36.98377568	      8.69409964	      5.89224304	     -4.07629946	     -3.50615734	      1.77651767
      4.42000000	     -3.50701895	     -0.64306321	     -1.26054959	     -0.93077007	      1.01417392	      0.39216032	      4.60955313	      2.04600216	     -5.15711518	    -16.92351488	     13.29475777	      1.31393724	     19.10825230	     -7.18653188	     -5.01506511	    -36.65617355	      8.81138817	      5.96071291	     -3.98041755	     -3.26010821	      1.57673644
      4.43000000	     -3.49672214	     -0.77757787	     -1.25894485	     -0.93350603	      1.01454149	      0.39138818	      4.69936552	      2.14837344	     -5.20185588	    -16.84673719	     13.11061510	      1.49123882	     18.36787654	     -7.22742149	     -4.79014222	    -36.23373696	      8.93636888	      5.96899820	     -3.82149644	     -3.02852743	      1.37407138
      4.44000000	     -3.48691544	     -0.92475750	     -1.25617047	     -0.93612484	      1.01485849	      0.39055522	      4.78997826	      2.26032511	     -5.23772389	    -16.77878258	     12.97207654	      1.66481014	     17.61096889	     -7.29802050	     -4.62842778	    -35.72865952	      9.02784297	      5.92892155	     -3.65697738	     -2.78326601	      1.20112263
      4.45000000	     -3.52240451	     -1.06991536	     -1.25625880	     -0.93866835	      1.01505507	      0.38968970	      4.94014674	      2.36996894	     -5.25087819	    -16.73290789	     12.81527501	      1.78510784	     16.89989652	     -7.38856943	     -4.55062287	    -35.16701489	      9.13038278	      5.85716963	     -3.43870459	     -2.54471238	      1.01636346
      4.46000000	     -3.53108761	     -1.24381284	     -1.25865806	     -0.94108076	      1.01524342	      0.38880518	      5.04830342	      2.50809899	     -5.27929781	    -16.67061379	     12.72606921	      1.92265180	     16.15526147	     -7.52512888	     -4.53458410	    -34.55181060	      9.18041857	      5.70673145	     -3.24836799	     -2.28368477	      0.86783982
      4.47000000	     -3.57782128	     -1.41079416	     -1.26081389	     -0.94344625	      1.01532582	      0.38786465	      5.21053257	      2.63653734	     -5.28581869	    -16.63280544	     12.62780077	      2.01684195	     15.46086121	     -7.66411657	     -4.58047786	    -33.90069635	      9.24168357	      5.54113051	     -3.02091542	     -2.03331531	      0.71176160
      4.48000000	     -3.64989695	     -1.57381083	     -1.25711422	     -0.94575833	      1.01532352	      0.38685903	      5.41005859	      2.75698356	     -5.28952998	    -16.61530193	     12.51882555	      2.07437422	     14.80981198	     -7.80174752	     -4.66941626	    -33.22570042	      9.32301371	      5.40767527	     -2.77160416	     -1.79013399	      0.54595931
      4.49000000	     -3.71611696	     -1.74662768	     -1.24205900	     -0.94801488	      1.01529253	      0.38579470	      5.59964312	      2.88487576	     -5.29596104	    -16.59409900	     12.43982305	      2.11744232	     14.17122394	     -7.95151128	     -4.80176851	    -32.52236435	      9.39056789	      5.26682153	     -2.53986774	     -1.54508370	      0.38304955
      4.50000000	     -3.78788699	     -1.91189050	     -1.20944129	     -0.95022387	      1.01522002	      0.38463363	      5.79947502	      2.99836693	     -5.31572412	    -16.58595909	     12.37370695	      2.14486955	     13.56201320	     -8.08414358	     -4.95474377	    -31.79178252	      9.46130636	      5.16306419	     -2.31218539	     -1.31142461	      0.20528957
      4.51000000	     -3.86036413	     -2.07276856	     -1.15243561	     -0.95238700	      1.01511997	      0.38336929	      6.00155044	      3.10023182	     -5.35449118	    -16.58702077	     12.31911678	      2.16271246	     12.97939141	     -8.20045111	     -5.12162122	    -31.02483086	      9.53939444	      5.11530590	     -2.09476762	     -1.08885480	      0.01160415
      4.52000000	     -3.97253121	     -2.21765648	     -1.05858655	     -0.95450647	      1.01493781	      0.38198461	      6.25131479	      3.17615189	     -5.43950109	    -16.60507965	     12.29109545	      2.16883465	     12.47327641	     -8.28601897	     -5.29579796	    -30.21804201	      9.62144128	      5.13378307	     -1.83608240	     -0.89115043	     -0.19652771
      4.53000000	     -3.99492289	     -2.36848744	     -0.93934521	     -0.95655384	      1.01487985	      0.38048832	      6.39768974	      3.25157043	     -5.52042271	    -16.61937832	     12.21916031	      2.18711140	     11.88520392	     -8.36458493	     -5.49856357	    -29.33327087	      9.76252047	      5.25085849	     -1.69320472	     -0.69090329	     -0.42749932
      4.54000000	     -4.06316715	     -2.49491884	     -0.78158624	     -0.95857564	      1.01473845	      0.37885248	      6.60317098	      3.28925619	     -5.65680665	    -16.65765280	     12.17938886	      2.19215823	     11.37993043	     -8.40178284	     -5.71321411	    -28.38219094	      9.91585731	      5.42077397	     -1.50395307	     -0.52391621	     -0.67451114
      4.55000000	     -4.13283438	     -2.61554604	     -0.59230082	     -0.96055578	      1.01458564	      0.37709662	      6.81231434	      3.31240169	     -5.81953371	    -16.70663404	     12.14283820	      2.18722811	     10.90393129	     -8.42212431	     -5.96335982	    -27.35576494	     10.09589839	      5.59892358	     -1.31780954	     -0.36826945	     -0.93155929
      4.56000000	     -4.22045543	     -2.73078239	     -0.38203366	     -0.96251965	      1.01439475	      0.37523016	      7.05199534	      3.32104615	     -6.00312958	    -16.77942437	     12.09191813	      2.17762020	     10.47838515	     -8.42870801	     -6.26696652	    -26.26785890	     10.30983808	      5.70103494	     -1.11769176	     -0.22170995	     -1.19121953
      4.57000000	     -4.26334003	     -2.83146874	     -0.14626591	     -0.96438636	      1.01428529	      0.37325114	      7.22165040	      3.30831163	     -6.19790444	    -16.82128441	     12.07829721	      2.13295066	     10.01265242	     -8.40596325	     -6.60462342	    -25.09664660	     10.50190809	      5.86056413	     -0.96598604	     -0.09638868	     -1.44203875
      4.58000000	     -4.33828832	     -2.93226319	      0.09311679	     -0.96626316	      1.01411653	      0.37117987	      7.44433840	      3.28712730	     -6.39646838	    -16.89588829	     12.02950805	      2.09761164	      9.61627930	     -8.37569405	     -6.99883565	    -23.91538625	     10.72392855	      5.89936676	     -0.78419390	      0.03004040	     -1.68364857
      4.59000000	     -4.37114083	     -3.01184831	      0.33401373	     -0.96805075	      1.01402554	      0.36902434	      7.59974137	      3.24043661	     -6.58134222	    -16.93637347	     12.01707305	      2.01627651	      9.17285755	     -8.30463275	     -7.40375673	    -22.69360087	     10.88916373	      5.89063981	     -0.64790014	      0.13078590	     -1.89570614
      4.60000000	     -4.41222752	     -3.08871605	      0.57427341	     -0.96982924	      1.01391363	      0.36678542	      7.76915235	      3.18330141	     -6.76402774	    -16.98646359	     11.98571691	      1.93835940	      8.76150562	     -8.21444236	     -7.79589246	    -21.49710854	     11.05000013	      5.78726630	     -0.50719678	      0.23066317	     -2.09223742
      4.61000000	     -4.44830803	     -3.16047846	      0.81619939	     -0.97158200	      1.01380703	      0.36446189	      7.92701615	      3.11428137	     -6.94218105	    -17.02754361	     11.95816889	      1.85888717	      8.36057055	     -8.09889013	     -8.13282611	    -20.33097666	     11.17797221	      5.60011939	     -0.37547205	      0.32649493	     -2.27024815
      4.62000000	     -4.47953111	     -3.22994395	      1.06142470	     -0.97332150	      1.01370646	      0.36207236	      8.07299817	      3.03738307	     -7.11728577	    -17.05852639	     11.93388165	      1.78541760	      7.97510474	     -7.96400415	     -8.38638294	    -19.21438086	     11.27029749	      5.34275273	     -0.25558650	      0.41982280	     -2.43619765
      4.63000000	     -4.50483231	     -3.29757409	      1.31513610	     -0.97504903	      1.01362445	      0.35961867	      8.20443006	      2.95364684	     -7.29367051	    -17.07679145	     11.91296441	      1.72326917	      7.60680248	     -7.81332170	     -8.54568088	    -18.15430455	     11.32365726	      5.02978152	     -0.14914720	      0.51080095	     -2.59030377
      4.64000000	     -4.52154270	     -3.35614806	      1.57913679	     -0.97679052	      1.01357896	      0.35712227	      8.31876037	      2.85644555	     -7.47341985	    -17.08174437	     11.89555812	      1.67562007	      7.25959359	     -7.64426136	     -8.60914907	    -17.15852418	     11.33142280	      4.68679197	     -0.06652719	      0.58798356	     -2.74089688
      4.65000000	     -4.54449597	     -3.39592337	      1.85044356	     -0.97855268	      1.01357057	      0.35459926	      8.43858787	      2.73647660	     -7.63602421	    -17.08809892	     11.84560521	      1.65152731	      6.94917447	     -7.44911206	     -8.56408828	    -16.22589413	     11.30245417	      4.42930114	      0.01263688	      0.63852676	     -2.88281866
      4.66000000	     -4.52725044	     -3.42116705	      2.15170287	     -0.98024593	      1.01366799	      0.35202744	      8.47945244	      2.59780379	     -7.85692038	    -17.03925349	     11.86499947	      1.62086749	      6.63272414	     -7.24240909	     -8.48469056	    -15.36589180	     11.19733853	      4.04849853	      0.04296791	      0.66766174	     -3.03168549
      4.67000000	     -4.50028390	     -3.43267412	      2.44624552	     -0.98201044	      1.01384193	      0.34950163	      8.52245643	      2.44905942	     -8.04423212	    -17.01099078	     11.85163219	      1.60767320	      6.34147530	     -7.02735104	     -8.32911019	    -14.57419746	     11.06598696	      3.68714101	      0.03847754	      0.67486500	     -3.15939586
      4.68000000	     -4.49834680	     -3.40350704	      2.75325704	     -0.98377907	      1.01406029	      0.34699122	      8.58003731	      2.25756153	     -8.22346232	    -16.96791499	     11.81712804	      1.60206370	      6.11770470	     -6.77779034	     -8.13432553	    -13.86035687	     10.86987832	      3.54761229	      0.05614976	      0.62677987	     -3.29806384
      4.69000000	     -4.46038962	     -3.35477484	      3.06769797	     -0.98551319	      1.01438383	      0.34450425	      8.58591044	      2.04617240	     -8.44062888	    -16.91048366	     11.81484433	      1.59756360	      5.88597694	     -6.52032742	     -7.92264179	    -13.21063449	     10.66066604	      3.38059640	      0.02772082	      0.55316580	     -3.42177979
      4.70000000	     -4.40307833	     -3.29286738	      3.37175761	     -0.98721954	      1.01477744	      0.34209076	      8.55780570	      1.82623814	     -8.67198894	    -16.83361266	     11.82336137	      1.59942646	      5.66120658	     -6.26588226	     -7.71856675	    -12.62462550	     10.44511141	      3.22024528	     -0.02738287	      0.45903874	     -3.51535274
      4.71000000	     -4.36974353	     -3.22073375	      3.64243697	     -0.98896962	      1.01517727	      0.33978641	      8.57164733	      1.60258754	     -8.85043935	    -16.78390770	     11.77961490	      1.60594108	      5.48837286	     -6.01379320	     -7.50935912	    -12.09959911	     10.21041053	      3.17823605	     -0.06555526	      0.35143311	     -3.58472526
      4.72000000	     -4.31255403	     -3.14401622	      3.89250085	     -0.99066865	      1.01561303	      0.33756284	      8.55100742	      1.37730269	     -9.06266521	    -16.72208182	     11.76363071	      1.61563083	      5.30891170	     -5.77192129	     -7.32083577	    -11.62732005	     10.00294395	      3.15039154	     -0.12831228	      0.23665421	     -3.60688452
